<svg width="500" height="133" viewBox="0 0 500 133" fill="none" xmlns="http://www.w3.org/2000/svg">
<path d="M500 7.49316V106.772H477.521V7.49316H500Z" fill="#F6F7FB"/>
<path d="M469.445 7.49316V106.772H446.967V7.49316H469.445Z" fill="#F6F7FB"/>
<path d="M443.841 70.9133C443.841 71.8945 443.752 72.9649 443.574 74.1245C443.484 75.1948 443.395 76.2652 443.306 77.3356H392.73C393.8 81.082 395.852 83.9809 398.885 86.0325C402.007 88.0841 405.932 89.1099 410.659 89.1099C414.049 89.1099 416.992 88.6193 419.49 87.6381C422.077 86.5677 424.574 84.9175 426.983 82.6876L438.757 96.2012C432.245 104.051 422.656 107.975 409.99 107.975C402.051 107.975 395.049 106.37 388.984 103.159C382.918 99.9476 378.235 95.4876 374.935 89.7789C371.635 84.0701 369.984 77.6478 369.984 70.5119C369.984 63.376 371.59 56.9983 374.801 51.3787C378.101 45.67 382.606 41.21 388.315 37.9989C394.023 34.7877 400.401 33.1821 407.448 33.1821C414.316 33.1821 420.516 34.6985 426.046 37.7313C431.576 40.764 435.902 45.1348 439.024 50.8435C442.236 56.5523 443.841 63.2422 443.841 70.9133ZM407.582 50.9773C403.568 50.9773 400.178 52.0923 397.413 54.3223C394.737 56.5523 393.042 59.6742 392.329 63.6882H422.567C421.854 59.7634 420.159 56.6861 417.483 54.4561C414.896 52.1369 411.596 50.9773 407.582 50.9773Z" fill="#F6F7FB"/>
<path d="M338.817 107.975C333.197 107.975 327.622 107.262 322.092 105.835C316.561 104.408 312.057 102.624 308.578 100.483L315.937 83.4903C319.059 85.5419 322.761 87.1921 327.042 88.4409C331.413 89.6005 335.65 90.1803 339.753 90.1803C347.157 90.1803 350.858 88.4409 350.858 84.9621C350.858 83.2674 349.833 82.1078 347.781 81.4834C345.819 80.7698 342.608 80.1008 338.148 79.4764C332.439 78.6736 327.711 77.6924 323.965 76.5328C320.219 75.3732 316.963 73.2771 314.198 70.2443C311.432 67.2115 310.05 62.8854 310.05 57.2658C310.05 52.5383 311.388 48.346 314.064 44.6888C316.74 41.0316 320.531 38.2219 325.437 36.2595C330.432 34.2079 336.319 33.1821 343.098 33.1821C348.004 33.1821 352.91 33.7173 357.816 34.7877C362.722 35.8581 366.825 37.3745 370.125 39.3369L362.633 56.0617C356.656 52.6721 350.145 50.9773 343.098 50.9773C339.263 50.9773 336.364 51.4679 334.401 52.4491C332.528 53.4303 331.591 54.7237 331.591 56.3293C331.591 58.1132 332.573 59.362 334.535 60.0756C336.587 60.7892 339.976 61.5474 344.704 62.3502C350.234 63.153 354.872 64.1342 358.619 65.2938C362.365 66.4533 365.576 68.5495 368.252 71.5823C371.017 74.6151 372.4 78.852 372.4 84.2931C372.4 88.9315 371.062 93.0346 368.386 96.6026C365.71 100.171 361.83 102.98 356.746 105.032C351.661 106.994 345.685 107.975 338.817 107.975Z" fill="#F6F7FB"/>
<path d="M262.898 88.8426V106.772H240.42V7.49316H262.898V60.8787L289.256 34.3867H315.882L287.383 65.2941L318.424 106.772H291.13L270.926 80.2795L262.898 88.8426Z" fill="#F6F7FB"/>
<path d="M207.42 107.975C199.927 107.975 193.192 106.37 187.216 103.159C181.329 99.9476 176.735 95.5322 173.435 89.9127C170.135 84.2039 168.484 77.737 168.484 70.5119C168.484 63.2868 170.135 56.8645 173.435 51.2449C176.735 45.5362 181.329 41.1208 187.216 37.9989C193.192 34.7877 199.927 33.1821 207.42 33.1821C215.091 33.1821 221.692 34.8769 227.222 38.2665C232.752 41.656 236.722 46.4282 239.13 52.5829L221.736 62.2164C218.525 55.7049 213.708 52.4491 207.286 52.4491C202.648 52.4491 198.812 54.0547 195.779 57.2658C192.836 60.477 191.364 64.8924 191.364 70.5119C191.364 76.1314 192.836 80.5468 195.779 83.7579C198.812 86.9691 202.648 88.5747 207.286 88.5747C213.797 88.5747 218.614 85.3189 221.736 78.8074L239.13 88.7085C236.722 94.774 232.708 99.5016 227.088 102.891C221.558 106.281 215.002 107.975 207.42 107.975Z" fill="#F6F7FB"/>
<path d="M154.004 25.6893C149.901 25.6893 146.556 24.4851 143.969 22.0767C141.471 19.5792 140.223 16.5018 140.223 12.8447C140.223 9.1875 141.471 6.15473 143.969 3.74636C146.556 1.24879 149.901 0 154.004 0C158.018 0 161.274 1.15959 163.771 3.47877C166.358 5.79794 167.651 8.7415 167.651 12.3095C167.651 16.2342 166.358 19.4454 163.771 21.9429C161.274 24.4405 158.018 25.6893 154.004 25.6893ZM165.109 34.3862V106.771H142.631V34.3862H165.109Z" fill="#F6F7FB"/>
<path d="M105.025 33.1821C111.448 33.1821 117.246 34.7431 122.419 37.8651C127.682 40.8978 131.785 45.224 134.729 50.8435C137.761 56.4631 139.278 63.0192 139.278 70.5119C139.278 78.0046 137.761 84.6053 134.729 90.3141C131.785 95.9336 127.682 100.304 122.419 103.426C117.246 106.459 111.448 107.975 105.025 107.975C97.0867 107.975 90.6198 105.656 85.6246 101.018V132.728H63.1465V34.3863H84.5542V40.8086C89.371 35.7243 96.1947 33.1821 105.025 33.1821ZM101.011 88.5747C105.561 88.5747 109.262 86.9691 112.117 83.7579C115.06 80.5468 116.532 76.1314 116.532 70.5119C116.532 64.9816 115.06 60.6108 112.117 57.3997C109.262 54.0993 105.561 52.4491 101.011 52.4491C96.4623 52.4491 92.7159 54.0993 89.7724 57.3997C86.8288 60.6108 85.357 64.9816 85.357 70.5119C85.357 76.1314 86.7842 80.5468 89.6386 83.7579C92.5821 86.9691 96.3731 88.5747 101.011 88.5747Z" fill="#F6F7FB"/>
<rect x="20.0723" y="48.5686" width="20.0698" height="20.0698" fill="#F6F7FB"/>
<rect x="20.0723" y="88.7087" width="20.0698" height="20.0698" fill="#F6F7FB"/>
<rect y="68.6379" width="20.0698" height="20.0698" fill="#F6F7FB"/>
</svg>
