<svg width="500" height="133" viewBox="0 0 500 133" fill="none" xmlns="http://www.w3.org/2000/svg">
<path d="M500 7.49146V106.773H477.521V7.49146H500Z" fill="#07163D"/>
<path d="M469.457 7.49146V106.773H446.979V7.49146H469.457Z" fill="#07163D"/>
<path d="M443.854 70.9143C443.854 71.8955 443.765 72.9659 443.587 74.1256C443.497 75.196 443.408 76.2664 443.319 77.3368H392.742C393.813 81.0833 395.864 83.9823 398.897 86.0339C402.019 88.0856 405.944 89.1114 410.672 89.1114C414.061 89.1114 417.005 88.6208 419.502 87.6396C422.089 86.5691 424.587 84.9189 426.995 82.6889L438.77 96.2029C432.258 104.053 422.669 107.977 410.003 107.977C402.064 107.977 395.061 106.372 388.996 103.161C382.93 99.9493 378.247 95.4893 374.947 89.7804C371.646 84.0715 369.996 77.649 369.996 70.5129C369.996 63.3768 371.602 56.9989 374.813 51.3792C378.113 45.6703 382.618 41.2102 388.327 37.999C394.036 34.7878 400.414 33.1821 407.46 33.1821C414.329 33.1821 420.528 34.6986 426.059 37.7314C431.589 40.7642 435.915 45.1351 439.037 50.844C442.249 56.5529 443.854 63.243 443.854 70.9143ZM407.594 50.9778C403.58 50.9778 400.191 52.0928 397.425 54.3228C394.749 56.5529 393.054 59.6749 392.341 63.689H422.58C421.866 59.7641 420.171 56.6867 417.495 54.4567C414.909 52.1374 411.608 50.9778 407.594 50.9778Z" fill="#07163D"/>
<path d="M338.815 107.977C333.196 107.977 327.62 107.264 322.09 105.837C316.56 104.409 312.055 102.625 308.576 100.485L315.935 83.4917C319.057 85.5433 322.759 87.1935 327.041 88.4424C331.412 89.602 335.649 90.1818 339.752 90.1818C347.155 90.1818 350.857 88.4424 350.857 84.9635C350.857 83.2687 349.831 82.1091 347.78 81.4847C345.817 80.771 342.606 80.102 338.146 79.4776C332.437 78.6748 327.71 77.6936 323.963 76.534C320.217 75.3744 316.961 73.2781 314.196 70.2453C311.431 67.2124 310.048 62.8862 310.048 57.2665C310.048 52.5388 311.386 48.3464 314.062 44.6891C316.738 41.0318 320.529 38.222 325.435 36.2596C330.43 34.2079 336.318 33.1821 343.097 33.1821C348.003 33.1821 352.909 33.7173 357.815 34.7878C362.721 35.8582 366.824 37.3746 370.125 39.337L362.632 56.0623C356.655 52.6726 350.144 50.9778 343.097 50.9778C339.261 50.9778 336.362 51.4684 334.4 52.4496C332.527 53.4308 331.59 54.7243 331.59 56.3299C331.59 58.1139 332.571 59.3627 334.534 60.0763C336.585 60.7899 339.975 61.5482 344.702 62.351C350.233 63.1538 354.871 64.135 358.618 65.2946C362.364 66.4542 365.575 68.5505 368.251 71.5833C371.017 74.6162 372.399 78.8532 372.399 84.2945C372.399 88.933 371.061 93.0362 368.385 96.6043C365.709 100.172 361.829 102.982 356.745 105.034C351.66 106.996 345.684 107.977 338.815 107.977Z" fill="#07163D"/>
<path d="M262.906 88.8431V106.773H240.428V7.49146H262.906V60.8785L289.265 34.3857H315.891L287.392 65.2939L318.434 106.773H291.138L270.934 80.2798L262.906 88.8431Z" fill="#07163D"/>
<path d="M207.43 107.977C199.937 107.977 193.203 106.372 187.226 103.161C181.339 99.9493 176.745 95.5339 173.445 89.9142C170.144 84.2053 168.494 77.7382 168.494 70.5129C168.494 63.2876 170.144 56.8651 173.445 51.2454C176.745 45.5365 181.339 41.121 187.226 37.999C193.203 34.7878 199.937 33.1821 207.43 33.1821C215.101 33.1821 221.702 34.877 227.233 38.2666C232.763 41.6563 236.733 46.4285 239.141 52.5834L221.747 62.2172C218.536 55.7055 213.719 52.4496 207.296 52.4496C202.658 52.4496 198.822 54.0552 195.79 57.2665C192.846 60.4777 191.374 64.8932 191.374 70.5129C191.374 76.1326 192.846 80.548 195.79 83.7593C198.822 86.9705 202.658 88.5762 207.296 88.5762C213.808 88.5762 218.625 85.3203 221.747 78.8086L239.141 88.71C236.733 94.7757 232.719 99.5033 227.099 102.893C221.569 106.283 215.012 107.977 207.43 107.977Z" fill="#07163D"/>
<path d="M153.998 25.69C149.895 25.69 146.55 24.4858 143.963 22.0773C141.466 19.5797 140.217 16.5023 140.217 12.845C140.217 9.18774 141.466 6.1549 143.963 3.74646C146.55 1.24882 149.895 0 153.998 0C158.012 0 161.268 1.15962 163.766 3.47886C166.353 5.79809 167.646 8.74174 167.646 12.3098C167.646 16.2346 166.353 19.4459 163.766 21.9435C161.268 24.4412 158.012 25.69 153.998 25.69ZM165.104 34.3871V106.774H142.625V34.3871H165.104Z" fill="#07163D"/>
<path d="M105.04 33.1821C111.462 33.1821 117.26 34.7432 122.434 37.8652C127.697 40.898 131.8 45.2243 134.744 50.844C137.776 56.4637 139.293 63.02 139.293 70.5129C139.293 78.0058 137.776 84.6067 134.744 90.3156C131.8 95.9353 127.697 100.306 122.434 103.428C117.26 106.461 111.462 107.977 105.04 107.977C97.101 107.977 90.634 105.658 85.6387 101.02V132.731H63.1602V34.3863H84.5683V40.8088C89.3851 35.7244 96.209 33.1821 105.04 33.1821ZM101.026 88.5762C105.575 88.5762 109.277 86.9705 112.131 83.7593C115.075 80.548 116.547 76.1326 116.547 70.5129C116.547 64.9824 115.075 60.6115 112.131 57.4003C109.277 54.0998 105.575 52.4496 101.026 52.4496C96.4766 52.4496 92.7302 54.0998 89.7865 57.4003C86.8429 60.6115 85.3711 64.9824 85.3711 70.5129C85.3711 76.1326 86.7983 80.548 89.6527 83.7593C92.5964 86.9705 96.3874 88.5762 101.026 88.5762Z" fill="#07163D"/>
<rect x="20.0723" y="48.5696" width="20.0701" height="20.0703" fill="#07163D"/>
<rect x="20.0723" y="88.7085" width="20.0701" height="20.0703" fill="#07163D"/>
<rect y="68.6396" width="20.0701" height="20.0703" fill="#07163D"/>
</svg>
